G75*
G70*
%OFA0B0*%
%FSLAX24Y24*%
%IPPOS*%
%LPD*%
%AMOC8*
5,1,8,0,0,1.08239X$1,22.5*
%
%ADD10C,0.0000*%
%ADD11C,0.0060*%
%ADD12C,0.1417*%
%ADD13C,0.0674*%
%ADD14R,0.0946X0.0316*%
%ADD15R,0.0671X0.0356*%
%ADD16R,0.1025X0.0789*%
%ADD17R,0.0671X0.0474*%
%ADD18R,0.0946X0.0493*%
%ADD19R,0.0474X0.0631*%
%ADD20R,0.0765X0.1367*%
%ADD21R,0.0474X0.0513*%
%ADD22R,0.0434X0.0356*%
%ADD23R,0.0356X0.0434*%
%ADD24R,0.0966X0.0277*%
%ADD25R,0.1458X0.0887*%
%ADD26C,0.0454*%
%ADD27R,0.1261X0.0710*%
%ADD28R,0.1064X0.1379*%
%ADD29R,0.0198X0.0631*%
%ADD30R,0.0513X0.0474*%
%ADD31R,0.1537X0.1537*%
%ADD32C,0.0019*%
%ADD33R,0.0395X0.0395*%
%ADD34R,0.2245X0.0671*%
%ADD35R,0.0529X0.0332*%
%ADD36R,0.0710X0.1261*%
%ADD37C,0.1858*%
%ADD38C,0.1661*%
%ADD39C,0.0946*%
%ADD40C,0.0397*%
%ADD41C,0.0476*%
%ADD42C,0.1622*%
D10*
X179601Y113654D02*
X179601Y133417D01*
X179603Y133483D01*
X179608Y133549D01*
X179618Y133615D01*
X179631Y133680D01*
X179647Y133744D01*
X179667Y133807D01*
X179691Y133869D01*
X179718Y133929D01*
X179748Y133988D01*
X179782Y134045D01*
X179819Y134100D01*
X179859Y134153D01*
X179901Y134204D01*
X179947Y134252D01*
X179995Y134298D01*
X180046Y134340D01*
X180099Y134380D01*
X180154Y134417D01*
X180211Y134451D01*
X180270Y134481D01*
X180330Y134508D01*
X180392Y134532D01*
X180455Y134552D01*
X180519Y134568D01*
X180584Y134581D01*
X180650Y134591D01*
X180716Y134596D01*
X180782Y134598D01*
X180779Y134598D02*
X211885Y134598D01*
X211951Y134596D01*
X212017Y134591D01*
X212083Y134581D01*
X212148Y134568D01*
X212212Y134552D01*
X212275Y134532D01*
X212337Y134508D01*
X212397Y134481D01*
X212456Y134451D01*
X212513Y134417D01*
X212568Y134380D01*
X212621Y134340D01*
X212672Y134298D01*
X212720Y134252D01*
X212766Y134204D01*
X212808Y134153D01*
X212848Y134100D01*
X212885Y134045D01*
X212919Y133988D01*
X212949Y133929D01*
X212976Y133869D01*
X213000Y133807D01*
X213020Y133744D01*
X213036Y133680D01*
X213049Y133615D01*
X213059Y133549D01*
X213064Y133483D01*
X213066Y133417D01*
X213066Y113654D01*
X213064Y113588D01*
X213059Y113522D01*
X213049Y113456D01*
X213036Y113391D01*
X213020Y113327D01*
X213000Y113264D01*
X212976Y113202D01*
X212949Y113142D01*
X212919Y113083D01*
X212885Y113026D01*
X212848Y112971D01*
X212808Y112918D01*
X212766Y112867D01*
X212720Y112819D01*
X212672Y112773D01*
X212621Y112731D01*
X212568Y112691D01*
X212513Y112654D01*
X212456Y112620D01*
X212397Y112590D01*
X212337Y112563D01*
X212275Y112539D01*
X212212Y112519D01*
X212148Y112503D01*
X212083Y112490D01*
X212017Y112480D01*
X211951Y112475D01*
X211885Y112473D01*
X211885Y112472D02*
X180782Y112472D01*
X180782Y112473D02*
X180716Y112475D01*
X180650Y112480D01*
X180584Y112490D01*
X180519Y112503D01*
X180455Y112519D01*
X180392Y112539D01*
X180330Y112563D01*
X180270Y112590D01*
X180211Y112620D01*
X180154Y112654D01*
X180099Y112691D01*
X180046Y112731D01*
X179995Y112773D01*
X179947Y112819D01*
X179901Y112867D01*
X179859Y112918D01*
X179819Y112971D01*
X179782Y113026D01*
X179748Y113083D01*
X179718Y113142D01*
X179691Y113202D01*
X179667Y113264D01*
X179647Y113327D01*
X179631Y113391D01*
X179618Y113456D01*
X179608Y113522D01*
X179603Y113588D01*
X179601Y113654D01*
X210170Y123094D02*
X210172Y123121D01*
X210178Y123147D01*
X210187Y123172D01*
X210200Y123195D01*
X210216Y123216D01*
X210235Y123235D01*
X210256Y123251D01*
X210279Y123264D01*
X210304Y123273D01*
X210330Y123279D01*
X210357Y123281D01*
X210384Y123279D01*
X210410Y123273D01*
X210435Y123264D01*
X210458Y123251D01*
X210479Y123235D01*
X210498Y123216D01*
X210514Y123195D01*
X210527Y123172D01*
X210536Y123147D01*
X210542Y123121D01*
X210544Y123094D01*
X210542Y123067D01*
X210536Y123041D01*
X210527Y123016D01*
X210514Y122993D01*
X210498Y122972D01*
X210479Y122953D01*
X210458Y122937D01*
X210435Y122924D01*
X210410Y122915D01*
X210384Y122909D01*
X210357Y122907D01*
X210330Y122909D01*
X210304Y122915D01*
X210279Y122924D01*
X210256Y122937D01*
X210235Y122953D01*
X210216Y122972D01*
X210200Y122993D01*
X210187Y123016D01*
X210178Y123041D01*
X210172Y123067D01*
X210170Y123094D01*
X210170Y124850D02*
X210172Y124877D01*
X210178Y124903D01*
X210187Y124928D01*
X210200Y124951D01*
X210216Y124972D01*
X210235Y124991D01*
X210256Y125007D01*
X210279Y125020D01*
X210304Y125029D01*
X210330Y125035D01*
X210357Y125037D01*
X210384Y125035D01*
X210410Y125029D01*
X210435Y125020D01*
X210458Y125007D01*
X210479Y124991D01*
X210498Y124972D01*
X210514Y124951D01*
X210527Y124928D01*
X210536Y124903D01*
X210542Y124877D01*
X210544Y124850D01*
X210542Y124823D01*
X210536Y124797D01*
X210527Y124772D01*
X210514Y124749D01*
X210498Y124728D01*
X210479Y124709D01*
X210458Y124693D01*
X210435Y124680D01*
X210410Y124671D01*
X210384Y124665D01*
X210357Y124663D01*
X210330Y124665D01*
X210304Y124671D01*
X210279Y124680D01*
X210256Y124693D01*
X210235Y124709D01*
X210216Y124728D01*
X210200Y124749D01*
X210187Y124772D01*
X210178Y124797D01*
X210172Y124823D01*
X210170Y124850D01*
X210743Y131646D02*
X210745Y131687D01*
X210751Y131728D01*
X210761Y131768D01*
X210774Y131807D01*
X210791Y131844D01*
X210812Y131880D01*
X210836Y131914D01*
X210863Y131945D01*
X210892Y131973D01*
X210925Y131999D01*
X210959Y132021D01*
X210996Y132040D01*
X211034Y132055D01*
X211074Y132067D01*
X211114Y132075D01*
X211155Y132079D01*
X211197Y132079D01*
X211238Y132075D01*
X211278Y132067D01*
X211318Y132055D01*
X211356Y132040D01*
X211392Y132021D01*
X211427Y131999D01*
X211460Y131973D01*
X211489Y131945D01*
X211516Y131914D01*
X211540Y131880D01*
X211561Y131844D01*
X211578Y131807D01*
X211591Y131768D01*
X211601Y131728D01*
X211607Y131687D01*
X211609Y131646D01*
X211607Y131605D01*
X211601Y131564D01*
X211591Y131524D01*
X211578Y131485D01*
X211561Y131448D01*
X211540Y131412D01*
X211516Y131378D01*
X211489Y131347D01*
X211460Y131319D01*
X211427Y131293D01*
X211393Y131271D01*
X211356Y131252D01*
X211318Y131237D01*
X211278Y131225D01*
X211238Y131217D01*
X211197Y131213D01*
X211155Y131213D01*
X211114Y131217D01*
X211074Y131225D01*
X211034Y131237D01*
X210996Y131252D01*
X210960Y131271D01*
X210925Y131293D01*
X210892Y131319D01*
X210863Y131347D01*
X210836Y131378D01*
X210812Y131412D01*
X210791Y131448D01*
X210774Y131485D01*
X210761Y131524D01*
X210751Y131564D01*
X210745Y131605D01*
X210743Y131646D01*
D11*
X180093Y109048D02*
X180093Y108408D01*
X180524Y108515D02*
X180631Y108408D01*
X180844Y108408D01*
X180951Y108515D01*
X180951Y108942D01*
X180844Y109048D01*
X180631Y109048D01*
X180524Y108942D01*
X180524Y108515D01*
X180306Y109048D02*
X179879Y109048D01*
X179805Y109853D02*
X180232Y109853D01*
X180018Y109853D02*
X180018Y110493D01*
X179805Y110280D01*
X180449Y110387D02*
X180449Y109960D01*
X180876Y110387D01*
X180876Y109960D01*
X180769Y109853D01*
X180556Y109853D01*
X180449Y109960D01*
X180449Y110387D02*
X180556Y110493D01*
X180769Y110493D01*
X180876Y110387D01*
X181094Y110493D02*
X181094Y109853D01*
X181521Y109853D01*
X181738Y109853D02*
X181738Y110280D01*
X181952Y110493D01*
X182165Y110280D01*
X182165Y109853D01*
X182383Y109853D02*
X182490Y109853D01*
X182490Y109960D01*
X182383Y109960D01*
X182383Y109853D01*
X182705Y109960D02*
X182812Y109853D01*
X183025Y109853D01*
X183132Y109960D01*
X183132Y110173D01*
X183025Y110280D01*
X182812Y110280D01*
X182705Y110173D01*
X182705Y109960D01*
X182165Y110173D02*
X181738Y110173D01*
X181489Y109048D02*
X181596Y108942D01*
X181596Y108728D01*
X181489Y108621D01*
X181169Y108621D01*
X181169Y108408D02*
X181169Y109048D01*
X181489Y109048D01*
X182458Y109048D02*
X182671Y108835D01*
X182885Y109048D01*
X182885Y108408D01*
X183102Y108408D02*
X183102Y108835D01*
X183316Y109048D01*
X183529Y108835D01*
X183529Y108408D01*
X183747Y108515D02*
X183853Y108408D01*
X184067Y108408D01*
X184174Y108515D01*
X184174Y108621D01*
X184067Y108728D01*
X183853Y108728D01*
X183747Y108835D01*
X183747Y108942D01*
X183853Y109048D01*
X184067Y109048D01*
X184174Y108942D01*
X184391Y109048D02*
X184391Y108408D01*
X184391Y108621D02*
X184818Y109048D01*
X184498Y108728D02*
X184818Y108408D01*
X183529Y108728D02*
X183102Y108728D01*
X182458Y108408D02*
X182458Y109048D01*
X183350Y109853D02*
X183350Y110280D01*
X183563Y110280D02*
X183670Y110280D01*
X183563Y110280D02*
X183350Y110066D01*
X183887Y109960D02*
X183994Y109853D01*
X184314Y109853D01*
X184314Y109746D02*
X184314Y110280D01*
X183994Y110280D01*
X183887Y110173D01*
X183887Y109960D01*
X184100Y109639D02*
X184207Y109639D01*
X184314Y109746D01*
X184531Y109746D02*
X184958Y109746D01*
X185176Y110173D02*
X185603Y110173D01*
X185820Y110066D02*
X186141Y110066D01*
X186247Y110173D01*
X186247Y110387D01*
X186141Y110493D01*
X185820Y110493D01*
X185820Y109853D01*
X185496Y109853D02*
X185496Y110493D01*
X185176Y110173D01*
X186465Y110280D02*
X186892Y109853D01*
X187110Y109960D02*
X187216Y109853D01*
X187430Y109853D01*
X187537Y109960D01*
X187537Y110493D01*
X187110Y110493D02*
X187110Y109960D01*
X186892Y110280D02*
X186465Y109853D01*
X187754Y109746D02*
X188181Y109746D01*
X188399Y109853D02*
X188399Y110493D01*
X188719Y110493D01*
X188826Y110387D01*
X188826Y110173D01*
X188719Y110066D01*
X188399Y110066D01*
X188612Y110066D02*
X188826Y109853D01*
X189043Y109853D02*
X189043Y110493D01*
X189363Y110493D01*
X189470Y110387D01*
X189470Y110173D01*
X189363Y110066D01*
X189043Y110066D01*
X189688Y109853D02*
X189901Y109853D01*
X189794Y109853D02*
X189794Y110280D01*
X189688Y110280D01*
X189794Y110493D02*
X189794Y110600D01*
X190762Y110493D02*
X191082Y110493D01*
X191189Y110387D01*
X191189Y110173D01*
X191082Y110066D01*
X190762Y110066D01*
X190762Y109853D02*
X190762Y110493D01*
X190975Y110066D02*
X191189Y109853D01*
X191407Y109960D02*
X191407Y110173D01*
X191513Y110280D01*
X191727Y110280D01*
X191834Y110173D01*
X191834Y110066D01*
X191407Y110066D01*
X191407Y109960D02*
X191513Y109853D01*
X191727Y109853D01*
X192051Y110280D02*
X192265Y109853D01*
X192478Y110280D01*
X193340Y110173D02*
X193660Y110173D01*
X193767Y110066D01*
X193767Y109960D01*
X193660Y109853D01*
X193340Y109853D01*
X193340Y110493D01*
X193660Y110493D01*
X193767Y110387D01*
X193767Y110280D01*
X193660Y110173D01*
X194629Y110280D02*
X194843Y110493D01*
X194843Y109853D01*
X195056Y109853D02*
X194629Y109853D01*
X195274Y109960D02*
X195274Y110066D01*
X195381Y110173D01*
X195594Y110173D01*
X195701Y110066D01*
X195701Y109960D01*
X195594Y109853D01*
X195381Y109853D01*
X195274Y109960D01*
X195381Y110173D02*
X195274Y110280D01*
X195274Y110387D01*
X195381Y110493D01*
X195594Y110493D01*
X195701Y110387D01*
X195701Y110280D01*
X195594Y110173D01*
X195918Y109960D02*
X196025Y109853D01*
X196132Y109853D01*
X196239Y109960D01*
X196239Y110493D01*
X196345Y110493D02*
X196132Y110493D01*
X196563Y110280D02*
X196563Y109960D01*
X196670Y109853D01*
X196990Y109853D01*
X196990Y110280D01*
X197207Y110493D02*
X197314Y110493D01*
X197314Y109853D01*
X197207Y109853D02*
X197421Y109853D01*
X197637Y109960D02*
X197744Y109853D01*
X198064Y109853D01*
X198064Y109746D02*
X197957Y109639D01*
X197851Y109639D01*
X198064Y109746D02*
X198064Y110280D01*
X198282Y110387D02*
X198388Y110493D01*
X198602Y110493D01*
X198709Y110387D01*
X198709Y110280D01*
X198282Y109853D01*
X198709Y109853D01*
X198926Y109960D02*
X199353Y110387D01*
X199353Y109960D01*
X199247Y109853D01*
X199033Y109853D01*
X198926Y109960D01*
X198926Y110387D01*
X199033Y110493D01*
X199247Y110493D01*
X199353Y110387D01*
X199571Y110280D02*
X199784Y110493D01*
X199784Y109853D01*
X199571Y109853D02*
X199998Y109853D01*
X200215Y110173D02*
X200536Y110493D01*
X200536Y109853D01*
X200642Y110173D02*
X200215Y110173D01*
X197637Y110280D02*
X197637Y109960D01*
D12*
X197174Y116882D03*
X195625Y116882D03*
X190452Y116882D03*
X188901Y116882D03*
X183727Y116882D03*
X183816Y126482D03*
X183816Y131656D03*
X202347Y116882D03*
X203899Y116882D03*
X209072Y116882D03*
D13*
X207863Y117949D03*
X206879Y117949D03*
X206092Y117949D03*
X205107Y117949D03*
X201139Y117949D03*
X200155Y117949D03*
X199367Y117949D03*
X198383Y117949D03*
X194416Y117949D03*
X193432Y117949D03*
X192645Y117949D03*
X191660Y117949D03*
X187692Y117949D03*
X186708Y117949D03*
X185920Y117949D03*
X184936Y117949D03*
X184883Y127691D03*
X184883Y128675D03*
X184883Y129463D03*
X184883Y130447D03*
D14*
X184046Y125124D03*
X184046Y124624D03*
X184046Y124124D03*
X184046Y123624D03*
X184050Y122734D03*
X184050Y122234D03*
X184050Y121734D03*
X184050Y121234D03*
X182003Y121234D03*
X182003Y121734D03*
X182003Y122234D03*
X182003Y122734D03*
X181999Y123624D03*
X181999Y124124D03*
X181999Y124624D03*
X181999Y125124D03*
D15*
X200375Y128281D03*
X200375Y129463D03*
D16*
X200552Y128872D03*
D17*
X201595Y128281D03*
X201595Y129463D03*
D18*
X201458Y128872D03*
D19*
X195200Y133154D03*
X194452Y133154D03*
X194826Y134020D03*
X207084Y122362D03*
X207832Y122362D03*
X207458Y121496D03*
D20*
X189523Y133354D03*
X187570Y133354D03*
D21*
X193889Y128333D03*
X194558Y128333D03*
X194552Y127524D03*
X193883Y127524D03*
X190162Y125116D03*
X189493Y125116D03*
X193871Y124189D03*
X194540Y124189D03*
X199529Y128719D03*
X199529Y129388D03*
X202568Y129459D03*
X202568Y128789D03*
X202164Y126443D03*
X201495Y126443D03*
X201493Y125634D03*
X202162Y125634D03*
X202170Y124825D03*
X201501Y124825D03*
X211338Y119045D03*
X212007Y119045D03*
X182483Y118144D03*
X182483Y117474D03*
D22*
X185975Y119057D03*
X185975Y119569D03*
X186651Y119565D03*
X186651Y119053D03*
X190946Y119986D03*
X190946Y120498D03*
X191615Y120498D03*
X191615Y119986D03*
X192700Y119563D03*
X192700Y119051D03*
X193377Y119053D03*
X193377Y119565D03*
X197694Y120039D03*
X197694Y120551D03*
X198363Y120569D03*
X198363Y120057D03*
X199420Y119567D03*
X199420Y119055D03*
X200097Y119053D03*
X200097Y119565D03*
X204347Y120026D03*
X204347Y120537D03*
X204999Y120549D03*
X204999Y120037D03*
X206149Y119563D03*
X206149Y119051D03*
X206822Y119053D03*
X206822Y119565D03*
X196861Y122443D03*
X196861Y122955D03*
X198428Y128719D03*
X198926Y128719D03*
X198926Y129230D03*
X198428Y129230D03*
X195237Y129242D03*
X195237Y128730D03*
D23*
X194385Y126880D03*
X193873Y126880D03*
X193952Y124791D03*
X194464Y124791D03*
X194456Y123589D03*
X193944Y123589D03*
X192048Y125016D03*
X191536Y125016D03*
X188194Y125026D03*
X187682Y125026D03*
X181666Y118366D03*
X181155Y118366D03*
X181155Y117695D03*
X181666Y117695D03*
X199824Y124567D03*
X199822Y125073D03*
X199822Y125579D03*
X200334Y125579D03*
X200334Y125073D03*
X200336Y124567D03*
X200338Y126827D03*
X199826Y126827D03*
X201597Y127707D03*
X202109Y127707D03*
X203340Y123591D03*
X203851Y123591D03*
X207318Y123161D03*
X207830Y123161D03*
D24*
X209550Y123343D03*
X209550Y123657D03*
X209550Y123972D03*
X209550Y124287D03*
X209550Y124602D03*
D25*
X209550Y125913D03*
X211223Y125913D03*
X211223Y122031D03*
X209550Y122031D03*
D26*
X210357Y123094D03*
X210357Y124850D03*
D27*
X203095Y119750D03*
X201363Y119750D03*
X196548Y119760D03*
X194816Y119760D03*
X189633Y119758D03*
X187901Y119758D03*
X184826Y119634D03*
X183094Y119634D03*
D28*
X197700Y132945D03*
X200377Y132945D03*
D29*
X199869Y119693D03*
X199653Y119693D03*
X199653Y118925D03*
X199869Y118925D03*
X193147Y118925D03*
X192930Y118925D03*
X192930Y119693D03*
X193147Y119693D03*
X186422Y119693D03*
X186206Y119693D03*
X186206Y118925D03*
X186422Y118925D03*
X206377Y118925D03*
X206594Y118925D03*
X206594Y119693D03*
X206377Y119693D03*
D30*
X205017Y119266D03*
X204347Y119266D03*
X210629Y119439D03*
X210629Y120108D03*
X211349Y120431D03*
X212019Y120431D03*
X202178Y123457D03*
X202178Y124126D03*
X200493Y123923D03*
X199824Y123923D03*
X199745Y126191D03*
X200414Y126191D03*
X197473Y128722D03*
X197473Y129392D03*
X196672Y129396D03*
X196672Y128726D03*
X195867Y128720D03*
X195867Y129390D03*
X197694Y119258D03*
X198363Y119258D03*
X191615Y119240D03*
X190946Y119240D03*
D31*
X196853Y125591D03*
D32*
X196939Y126465D02*
X196939Y126881D01*
X196939Y126465D02*
X196767Y126465D01*
X196767Y126881D01*
X196939Y126881D01*
X196939Y126483D02*
X196767Y126483D01*
X196767Y126501D02*
X196939Y126501D01*
X196939Y126519D02*
X196767Y126519D01*
X196767Y126537D02*
X196939Y126537D01*
X196939Y126555D02*
X196767Y126555D01*
X196767Y126573D02*
X196939Y126573D01*
X196939Y126591D02*
X196767Y126591D01*
X196767Y126609D02*
X196939Y126609D01*
X196939Y126627D02*
X196767Y126627D01*
X196767Y126645D02*
X196939Y126645D01*
X196939Y126663D02*
X196767Y126663D01*
X196767Y126681D02*
X196939Y126681D01*
X196939Y126699D02*
X196767Y126699D01*
X196767Y126717D02*
X196939Y126717D01*
X196939Y126735D02*
X196767Y126735D01*
X196767Y126753D02*
X196939Y126753D01*
X196939Y126771D02*
X196767Y126771D01*
X196767Y126789D02*
X196939Y126789D01*
X196939Y126807D02*
X196767Y126807D01*
X196767Y126825D02*
X196939Y126825D01*
X196939Y126843D02*
X196767Y126843D01*
X196767Y126861D02*
X196939Y126861D01*
X196939Y126879D02*
X196767Y126879D01*
X196570Y126881D02*
X196570Y126465D01*
X196570Y126881D02*
X196742Y126881D01*
X196742Y126465D01*
X196570Y126465D01*
X196570Y126483D02*
X196742Y126483D01*
X196742Y126501D02*
X196570Y126501D01*
X196570Y126519D02*
X196742Y126519D01*
X196742Y126537D02*
X196570Y126537D01*
X196570Y126555D02*
X196742Y126555D01*
X196742Y126573D02*
X196570Y126573D01*
X196570Y126591D02*
X196742Y126591D01*
X196742Y126609D02*
X196570Y126609D01*
X196570Y126627D02*
X196742Y126627D01*
X196742Y126645D02*
X196570Y126645D01*
X196570Y126663D02*
X196742Y126663D01*
X196742Y126681D02*
X196570Y126681D01*
X196570Y126699D02*
X196742Y126699D01*
X196742Y126717D02*
X196570Y126717D01*
X196570Y126735D02*
X196742Y126735D01*
X196742Y126753D02*
X196570Y126753D01*
X196570Y126771D02*
X196742Y126771D01*
X196742Y126789D02*
X196570Y126789D01*
X196570Y126807D02*
X196742Y126807D01*
X196742Y126825D02*
X196570Y126825D01*
X196570Y126843D02*
X196742Y126843D01*
X196742Y126861D02*
X196570Y126861D01*
X196570Y126879D02*
X196742Y126879D01*
X196374Y126881D02*
X196374Y126465D01*
X196374Y126881D02*
X196546Y126881D01*
X196546Y126465D01*
X196374Y126465D01*
X196374Y126483D02*
X196546Y126483D01*
X196546Y126501D02*
X196374Y126501D01*
X196374Y126519D02*
X196546Y126519D01*
X196546Y126537D02*
X196374Y126537D01*
X196374Y126555D02*
X196546Y126555D01*
X196546Y126573D02*
X196374Y126573D01*
X196374Y126591D02*
X196546Y126591D01*
X196546Y126609D02*
X196374Y126609D01*
X196374Y126627D02*
X196546Y126627D01*
X196546Y126645D02*
X196374Y126645D01*
X196374Y126663D02*
X196546Y126663D01*
X196546Y126681D02*
X196374Y126681D01*
X196374Y126699D02*
X196546Y126699D01*
X196546Y126717D02*
X196374Y126717D01*
X196374Y126735D02*
X196546Y126735D01*
X196546Y126753D02*
X196374Y126753D01*
X196374Y126771D02*
X196546Y126771D01*
X196546Y126789D02*
X196374Y126789D01*
X196374Y126807D02*
X196546Y126807D01*
X196546Y126825D02*
X196374Y126825D01*
X196374Y126843D02*
X196546Y126843D01*
X196546Y126861D02*
X196374Y126861D01*
X196374Y126879D02*
X196546Y126879D01*
X196177Y126881D02*
X196177Y126465D01*
X196177Y126881D02*
X196349Y126881D01*
X196349Y126465D01*
X196177Y126465D01*
X196177Y126483D02*
X196349Y126483D01*
X196349Y126501D02*
X196177Y126501D01*
X196177Y126519D02*
X196349Y126519D01*
X196349Y126537D02*
X196177Y126537D01*
X196177Y126555D02*
X196349Y126555D01*
X196349Y126573D02*
X196177Y126573D01*
X196177Y126591D02*
X196349Y126591D01*
X196349Y126609D02*
X196177Y126609D01*
X196177Y126627D02*
X196349Y126627D01*
X196349Y126645D02*
X196177Y126645D01*
X196177Y126663D02*
X196349Y126663D01*
X196349Y126681D02*
X196177Y126681D01*
X196177Y126699D02*
X196349Y126699D01*
X196349Y126717D02*
X196177Y126717D01*
X196177Y126735D02*
X196349Y126735D01*
X196349Y126753D02*
X196177Y126753D01*
X196177Y126771D02*
X196349Y126771D01*
X196349Y126789D02*
X196177Y126789D01*
X196177Y126807D02*
X196349Y126807D01*
X196349Y126825D02*
X196177Y126825D01*
X196177Y126843D02*
X196349Y126843D01*
X196349Y126861D02*
X196177Y126861D01*
X196177Y126879D02*
X196349Y126879D01*
X195980Y126881D02*
X195980Y126465D01*
X195980Y126881D02*
X196152Y126881D01*
X196152Y126465D01*
X195980Y126465D01*
X195980Y126483D02*
X196152Y126483D01*
X196152Y126501D02*
X195980Y126501D01*
X195980Y126519D02*
X196152Y126519D01*
X196152Y126537D02*
X195980Y126537D01*
X195980Y126555D02*
X196152Y126555D01*
X196152Y126573D02*
X195980Y126573D01*
X195980Y126591D02*
X196152Y126591D01*
X196152Y126609D02*
X195980Y126609D01*
X195980Y126627D02*
X196152Y126627D01*
X196152Y126645D02*
X195980Y126645D01*
X195980Y126663D02*
X196152Y126663D01*
X196152Y126681D02*
X195980Y126681D01*
X195980Y126699D02*
X196152Y126699D01*
X196152Y126717D02*
X195980Y126717D01*
X195980Y126735D02*
X196152Y126735D01*
X196152Y126753D02*
X195980Y126753D01*
X195980Y126771D02*
X196152Y126771D01*
X196152Y126789D02*
X195980Y126789D01*
X195980Y126807D02*
X196152Y126807D01*
X196152Y126825D02*
X195980Y126825D01*
X195980Y126843D02*
X196152Y126843D01*
X196152Y126861D02*
X195980Y126861D01*
X195980Y126879D02*
X196152Y126879D01*
X195979Y126292D02*
X195563Y126292D01*
X195563Y126464D01*
X195979Y126464D01*
X195979Y126292D01*
X195979Y126310D02*
X195563Y126310D01*
X195563Y126328D02*
X195979Y126328D01*
X195979Y126346D02*
X195563Y126346D01*
X195563Y126364D02*
X195979Y126364D01*
X195979Y126382D02*
X195563Y126382D01*
X195563Y126400D02*
X195979Y126400D01*
X195979Y126418D02*
X195563Y126418D01*
X195563Y126436D02*
X195979Y126436D01*
X195979Y126454D02*
X195563Y126454D01*
X195563Y126095D02*
X195979Y126095D01*
X195563Y126095D02*
X195563Y126267D01*
X195979Y126267D01*
X195979Y126095D01*
X195979Y126113D02*
X195563Y126113D01*
X195563Y126131D02*
X195979Y126131D01*
X195979Y126149D02*
X195563Y126149D01*
X195563Y126167D02*
X195979Y126167D01*
X195979Y126185D02*
X195563Y126185D01*
X195563Y126203D02*
X195979Y126203D01*
X195979Y126221D02*
X195563Y126221D01*
X195563Y126239D02*
X195979Y126239D01*
X195979Y126257D02*
X195563Y126257D01*
X195563Y125898D02*
X195979Y125898D01*
X195563Y125898D02*
X195563Y126070D01*
X195979Y126070D01*
X195979Y125898D01*
X195979Y125916D02*
X195563Y125916D01*
X195563Y125934D02*
X195979Y125934D01*
X195979Y125952D02*
X195563Y125952D01*
X195563Y125970D02*
X195979Y125970D01*
X195979Y125988D02*
X195563Y125988D01*
X195563Y126006D02*
X195979Y126006D01*
X195979Y126024D02*
X195563Y126024D01*
X195563Y126042D02*
X195979Y126042D01*
X195979Y126060D02*
X195563Y126060D01*
X195563Y125701D02*
X195979Y125701D01*
X195563Y125701D02*
X195563Y125873D01*
X195979Y125873D01*
X195979Y125701D01*
X195979Y125719D02*
X195563Y125719D01*
X195563Y125737D02*
X195979Y125737D01*
X195979Y125755D02*
X195563Y125755D01*
X195563Y125773D02*
X195979Y125773D01*
X195979Y125791D02*
X195563Y125791D01*
X195563Y125809D02*
X195979Y125809D01*
X195979Y125827D02*
X195563Y125827D01*
X195563Y125845D02*
X195979Y125845D01*
X195979Y125863D02*
X195563Y125863D01*
X195563Y125677D02*
X195979Y125677D01*
X195979Y125505D01*
X195563Y125505D01*
X195563Y125677D01*
X195563Y125523D02*
X195979Y125523D01*
X195979Y125541D02*
X195563Y125541D01*
X195563Y125559D02*
X195979Y125559D01*
X195979Y125577D02*
X195563Y125577D01*
X195563Y125595D02*
X195979Y125595D01*
X195979Y125613D02*
X195563Y125613D01*
X195563Y125631D02*
X195979Y125631D01*
X195979Y125649D02*
X195563Y125649D01*
X195563Y125667D02*
X195979Y125667D01*
X195979Y125308D02*
X195563Y125308D01*
X195563Y125480D01*
X195979Y125480D01*
X195979Y125308D01*
X195979Y125326D02*
X195563Y125326D01*
X195563Y125344D02*
X195979Y125344D01*
X195979Y125362D02*
X195563Y125362D01*
X195563Y125380D02*
X195979Y125380D01*
X195979Y125398D02*
X195563Y125398D01*
X195563Y125416D02*
X195979Y125416D01*
X195979Y125434D02*
X195563Y125434D01*
X195563Y125452D02*
X195979Y125452D01*
X195979Y125470D02*
X195563Y125470D01*
X195563Y125111D02*
X195979Y125111D01*
X195563Y125111D02*
X195563Y125283D01*
X195979Y125283D01*
X195979Y125111D01*
X195979Y125129D02*
X195563Y125129D01*
X195563Y125147D02*
X195979Y125147D01*
X195979Y125165D02*
X195563Y125165D01*
X195563Y125183D02*
X195979Y125183D01*
X195979Y125201D02*
X195563Y125201D01*
X195563Y125219D02*
X195979Y125219D01*
X195979Y125237D02*
X195563Y125237D01*
X195563Y125255D02*
X195979Y125255D01*
X195979Y125273D02*
X195563Y125273D01*
X195563Y124914D02*
X195979Y124914D01*
X195563Y124914D02*
X195563Y125086D01*
X195979Y125086D01*
X195979Y124914D01*
X195979Y124932D02*
X195563Y124932D01*
X195563Y124950D02*
X195979Y124950D01*
X195979Y124968D02*
X195563Y124968D01*
X195563Y124986D02*
X195979Y124986D01*
X195979Y125004D02*
X195563Y125004D01*
X195563Y125022D02*
X195979Y125022D01*
X195979Y125040D02*
X195563Y125040D01*
X195563Y125058D02*
X195979Y125058D01*
X195979Y125076D02*
X195563Y125076D01*
X195563Y124717D02*
X195979Y124717D01*
X195563Y124717D02*
X195563Y124889D01*
X195979Y124889D01*
X195979Y124717D01*
X195979Y124735D02*
X195563Y124735D01*
X195563Y124753D02*
X195979Y124753D01*
X195979Y124771D02*
X195563Y124771D01*
X195563Y124789D02*
X195979Y124789D01*
X195979Y124807D02*
X195563Y124807D01*
X195563Y124825D02*
X195979Y124825D01*
X195979Y124843D02*
X195563Y124843D01*
X195563Y124861D02*
X195979Y124861D01*
X195979Y124879D02*
X195563Y124879D01*
X196152Y124716D02*
X196152Y124300D01*
X195980Y124300D01*
X195980Y124716D01*
X196152Y124716D01*
X196152Y124318D02*
X195980Y124318D01*
X195980Y124336D02*
X196152Y124336D01*
X196152Y124354D02*
X195980Y124354D01*
X195980Y124372D02*
X196152Y124372D01*
X196152Y124390D02*
X195980Y124390D01*
X195980Y124408D02*
X196152Y124408D01*
X196152Y124426D02*
X195980Y124426D01*
X195980Y124444D02*
X196152Y124444D01*
X196152Y124462D02*
X195980Y124462D01*
X195980Y124480D02*
X196152Y124480D01*
X196152Y124498D02*
X195980Y124498D01*
X195980Y124516D02*
X196152Y124516D01*
X196152Y124534D02*
X195980Y124534D01*
X195980Y124552D02*
X196152Y124552D01*
X196152Y124570D02*
X195980Y124570D01*
X195980Y124588D02*
X196152Y124588D01*
X196152Y124606D02*
X195980Y124606D01*
X195980Y124624D02*
X196152Y124624D01*
X196152Y124642D02*
X195980Y124642D01*
X195980Y124660D02*
X196152Y124660D01*
X196152Y124678D02*
X195980Y124678D01*
X195980Y124696D02*
X196152Y124696D01*
X196152Y124714D02*
X195980Y124714D01*
X196349Y124716D02*
X196349Y124300D01*
X196177Y124300D01*
X196177Y124716D01*
X196349Y124716D01*
X196349Y124318D02*
X196177Y124318D01*
X196177Y124336D02*
X196349Y124336D01*
X196349Y124354D02*
X196177Y124354D01*
X196177Y124372D02*
X196349Y124372D01*
X196349Y124390D02*
X196177Y124390D01*
X196177Y124408D02*
X196349Y124408D01*
X196349Y124426D02*
X196177Y124426D01*
X196177Y124444D02*
X196349Y124444D01*
X196349Y124462D02*
X196177Y124462D01*
X196177Y124480D02*
X196349Y124480D01*
X196349Y124498D02*
X196177Y124498D01*
X196177Y124516D02*
X196349Y124516D01*
X196349Y124534D02*
X196177Y124534D01*
X196177Y124552D02*
X196349Y124552D01*
X196349Y124570D02*
X196177Y124570D01*
X196177Y124588D02*
X196349Y124588D01*
X196349Y124606D02*
X196177Y124606D01*
X196177Y124624D02*
X196349Y124624D01*
X196349Y124642D02*
X196177Y124642D01*
X196177Y124660D02*
X196349Y124660D01*
X196349Y124678D02*
X196177Y124678D01*
X196177Y124696D02*
X196349Y124696D01*
X196349Y124714D02*
X196177Y124714D01*
X196546Y124716D02*
X196546Y124300D01*
X196374Y124300D01*
X196374Y124716D01*
X196546Y124716D01*
X196546Y124318D02*
X196374Y124318D01*
X196374Y124336D02*
X196546Y124336D01*
X196546Y124354D02*
X196374Y124354D01*
X196374Y124372D02*
X196546Y124372D01*
X196546Y124390D02*
X196374Y124390D01*
X196374Y124408D02*
X196546Y124408D01*
X196546Y124426D02*
X196374Y124426D01*
X196374Y124444D02*
X196546Y124444D01*
X196546Y124462D02*
X196374Y124462D01*
X196374Y124480D02*
X196546Y124480D01*
X196546Y124498D02*
X196374Y124498D01*
X196374Y124516D02*
X196546Y124516D01*
X196546Y124534D02*
X196374Y124534D01*
X196374Y124552D02*
X196546Y124552D01*
X196546Y124570D02*
X196374Y124570D01*
X196374Y124588D02*
X196546Y124588D01*
X196546Y124606D02*
X196374Y124606D01*
X196374Y124624D02*
X196546Y124624D01*
X196546Y124642D02*
X196374Y124642D01*
X196374Y124660D02*
X196546Y124660D01*
X196546Y124678D02*
X196374Y124678D01*
X196374Y124696D02*
X196546Y124696D01*
X196546Y124714D02*
X196374Y124714D01*
X196742Y124716D02*
X196742Y124300D01*
X196570Y124300D01*
X196570Y124716D01*
X196742Y124716D01*
X196742Y124318D02*
X196570Y124318D01*
X196570Y124336D02*
X196742Y124336D01*
X196742Y124354D02*
X196570Y124354D01*
X196570Y124372D02*
X196742Y124372D01*
X196742Y124390D02*
X196570Y124390D01*
X196570Y124408D02*
X196742Y124408D01*
X196742Y124426D02*
X196570Y124426D01*
X196570Y124444D02*
X196742Y124444D01*
X196742Y124462D02*
X196570Y124462D01*
X196570Y124480D02*
X196742Y124480D01*
X196742Y124498D02*
X196570Y124498D01*
X196570Y124516D02*
X196742Y124516D01*
X196742Y124534D02*
X196570Y124534D01*
X196570Y124552D02*
X196742Y124552D01*
X196742Y124570D02*
X196570Y124570D01*
X196570Y124588D02*
X196742Y124588D01*
X196742Y124606D02*
X196570Y124606D01*
X196570Y124624D02*
X196742Y124624D01*
X196742Y124642D02*
X196570Y124642D01*
X196570Y124660D02*
X196742Y124660D01*
X196742Y124678D02*
X196570Y124678D01*
X196570Y124696D02*
X196742Y124696D01*
X196742Y124714D02*
X196570Y124714D01*
X196939Y124716D02*
X196939Y124300D01*
X196767Y124300D01*
X196767Y124716D01*
X196939Y124716D01*
X196939Y124318D02*
X196767Y124318D01*
X196767Y124336D02*
X196939Y124336D01*
X196939Y124354D02*
X196767Y124354D01*
X196767Y124372D02*
X196939Y124372D01*
X196939Y124390D02*
X196767Y124390D01*
X196767Y124408D02*
X196939Y124408D01*
X196939Y124426D02*
X196767Y124426D01*
X196767Y124444D02*
X196939Y124444D01*
X196939Y124462D02*
X196767Y124462D01*
X196767Y124480D02*
X196939Y124480D01*
X196939Y124498D02*
X196767Y124498D01*
X196767Y124516D02*
X196939Y124516D01*
X196939Y124534D02*
X196767Y124534D01*
X196767Y124552D02*
X196939Y124552D01*
X196939Y124570D02*
X196767Y124570D01*
X196767Y124588D02*
X196939Y124588D01*
X196939Y124606D02*
X196767Y124606D01*
X196767Y124624D02*
X196939Y124624D01*
X196939Y124642D02*
X196767Y124642D01*
X196767Y124660D02*
X196939Y124660D01*
X196939Y124678D02*
X196767Y124678D01*
X196767Y124696D02*
X196939Y124696D01*
X196939Y124714D02*
X196767Y124714D01*
X197136Y124716D02*
X197136Y124300D01*
X196964Y124300D01*
X196964Y124716D01*
X197136Y124716D01*
X197136Y124318D02*
X196964Y124318D01*
X196964Y124336D02*
X197136Y124336D01*
X197136Y124354D02*
X196964Y124354D01*
X196964Y124372D02*
X197136Y124372D01*
X197136Y124390D02*
X196964Y124390D01*
X196964Y124408D02*
X197136Y124408D01*
X197136Y124426D02*
X196964Y124426D01*
X196964Y124444D02*
X197136Y124444D01*
X197136Y124462D02*
X196964Y124462D01*
X196964Y124480D02*
X197136Y124480D01*
X197136Y124498D02*
X196964Y124498D01*
X196964Y124516D02*
X197136Y124516D01*
X197136Y124534D02*
X196964Y124534D01*
X196964Y124552D02*
X197136Y124552D01*
X197136Y124570D02*
X196964Y124570D01*
X196964Y124588D02*
X197136Y124588D01*
X197136Y124606D02*
X196964Y124606D01*
X196964Y124624D02*
X197136Y124624D01*
X197136Y124642D02*
X196964Y124642D01*
X196964Y124660D02*
X197136Y124660D01*
X197136Y124678D02*
X196964Y124678D01*
X196964Y124696D02*
X197136Y124696D01*
X197136Y124714D02*
X196964Y124714D01*
X197333Y124716D02*
X197333Y124300D01*
X197161Y124300D01*
X197161Y124716D01*
X197333Y124716D01*
X197333Y124318D02*
X197161Y124318D01*
X197161Y124336D02*
X197333Y124336D01*
X197333Y124354D02*
X197161Y124354D01*
X197161Y124372D02*
X197333Y124372D01*
X197333Y124390D02*
X197161Y124390D01*
X197161Y124408D02*
X197333Y124408D01*
X197333Y124426D02*
X197161Y124426D01*
X197161Y124444D02*
X197333Y124444D01*
X197333Y124462D02*
X197161Y124462D01*
X197161Y124480D02*
X197333Y124480D01*
X197333Y124498D02*
X197161Y124498D01*
X197161Y124516D02*
X197333Y124516D01*
X197333Y124534D02*
X197161Y124534D01*
X197161Y124552D02*
X197333Y124552D01*
X197333Y124570D02*
X197161Y124570D01*
X197161Y124588D02*
X197333Y124588D01*
X197333Y124606D02*
X197161Y124606D01*
X197161Y124624D02*
X197333Y124624D01*
X197333Y124642D02*
X197161Y124642D01*
X197161Y124660D02*
X197333Y124660D01*
X197333Y124678D02*
X197161Y124678D01*
X197161Y124696D02*
X197333Y124696D01*
X197333Y124714D02*
X197161Y124714D01*
X197530Y124716D02*
X197530Y124300D01*
X197358Y124300D01*
X197358Y124716D01*
X197530Y124716D01*
X197530Y124318D02*
X197358Y124318D01*
X197358Y124336D02*
X197530Y124336D01*
X197530Y124354D02*
X197358Y124354D01*
X197358Y124372D02*
X197530Y124372D01*
X197530Y124390D02*
X197358Y124390D01*
X197358Y124408D02*
X197530Y124408D01*
X197530Y124426D02*
X197358Y124426D01*
X197358Y124444D02*
X197530Y124444D01*
X197530Y124462D02*
X197358Y124462D01*
X197358Y124480D02*
X197530Y124480D01*
X197530Y124498D02*
X197358Y124498D01*
X197358Y124516D02*
X197530Y124516D01*
X197530Y124534D02*
X197358Y124534D01*
X197358Y124552D02*
X197530Y124552D01*
X197530Y124570D02*
X197358Y124570D01*
X197358Y124588D02*
X197530Y124588D01*
X197530Y124606D02*
X197358Y124606D01*
X197358Y124624D02*
X197530Y124624D01*
X197530Y124642D02*
X197358Y124642D01*
X197358Y124660D02*
X197530Y124660D01*
X197530Y124678D02*
X197358Y124678D01*
X197358Y124696D02*
X197530Y124696D01*
X197530Y124714D02*
X197358Y124714D01*
X197727Y124716D02*
X197727Y124300D01*
X197555Y124300D01*
X197555Y124716D01*
X197727Y124716D01*
X197727Y124318D02*
X197555Y124318D01*
X197555Y124336D02*
X197727Y124336D01*
X197727Y124354D02*
X197555Y124354D01*
X197555Y124372D02*
X197727Y124372D01*
X197727Y124390D02*
X197555Y124390D01*
X197555Y124408D02*
X197727Y124408D01*
X197727Y124426D02*
X197555Y124426D01*
X197555Y124444D02*
X197727Y124444D01*
X197727Y124462D02*
X197555Y124462D01*
X197555Y124480D02*
X197727Y124480D01*
X197727Y124498D02*
X197555Y124498D01*
X197555Y124516D02*
X197727Y124516D01*
X197727Y124534D02*
X197555Y124534D01*
X197555Y124552D02*
X197727Y124552D01*
X197727Y124570D02*
X197555Y124570D01*
X197555Y124588D02*
X197727Y124588D01*
X197727Y124606D02*
X197555Y124606D01*
X197555Y124624D02*
X197727Y124624D01*
X197727Y124642D02*
X197555Y124642D01*
X197555Y124660D02*
X197727Y124660D01*
X197727Y124678D02*
X197555Y124678D01*
X197555Y124696D02*
X197727Y124696D01*
X197727Y124714D02*
X197555Y124714D01*
X197728Y124889D02*
X198144Y124889D01*
X198144Y124717D01*
X197728Y124717D01*
X197728Y124889D01*
X197728Y124735D02*
X198144Y124735D01*
X198144Y124753D02*
X197728Y124753D01*
X197728Y124771D02*
X198144Y124771D01*
X198144Y124789D02*
X197728Y124789D01*
X197728Y124807D02*
X198144Y124807D01*
X198144Y124825D02*
X197728Y124825D01*
X197728Y124843D02*
X198144Y124843D01*
X198144Y124861D02*
X197728Y124861D01*
X197728Y124879D02*
X198144Y124879D01*
X198144Y125086D02*
X197728Y125086D01*
X198144Y125086D02*
X198144Y124914D01*
X197728Y124914D01*
X197728Y125086D01*
X197728Y124932D02*
X198144Y124932D01*
X198144Y124950D02*
X197728Y124950D01*
X197728Y124968D02*
X198144Y124968D01*
X198144Y124986D02*
X197728Y124986D01*
X197728Y125004D02*
X198144Y125004D01*
X198144Y125022D02*
X197728Y125022D01*
X197728Y125040D02*
X198144Y125040D01*
X198144Y125058D02*
X197728Y125058D01*
X197728Y125076D02*
X198144Y125076D01*
X198144Y125283D02*
X197728Y125283D01*
X198144Y125283D02*
X198144Y125111D01*
X197728Y125111D01*
X197728Y125283D01*
X197728Y125129D02*
X198144Y125129D01*
X198144Y125147D02*
X197728Y125147D01*
X197728Y125165D02*
X198144Y125165D01*
X198144Y125183D02*
X197728Y125183D01*
X197728Y125201D02*
X198144Y125201D01*
X198144Y125219D02*
X197728Y125219D01*
X197728Y125237D02*
X198144Y125237D01*
X198144Y125255D02*
X197728Y125255D01*
X197728Y125273D02*
X198144Y125273D01*
X198144Y125480D02*
X197728Y125480D01*
X198144Y125480D02*
X198144Y125308D01*
X197728Y125308D01*
X197728Y125480D01*
X197728Y125326D02*
X198144Y125326D01*
X198144Y125344D02*
X197728Y125344D01*
X197728Y125362D02*
X198144Y125362D01*
X198144Y125380D02*
X197728Y125380D01*
X197728Y125398D02*
X198144Y125398D01*
X198144Y125416D02*
X197728Y125416D01*
X197728Y125434D02*
X198144Y125434D01*
X198144Y125452D02*
X197728Y125452D01*
X197728Y125470D02*
X198144Y125470D01*
X198144Y125677D02*
X197728Y125677D01*
X198144Y125677D02*
X198144Y125505D01*
X197728Y125505D01*
X197728Y125677D01*
X197728Y125523D02*
X198144Y125523D01*
X198144Y125541D02*
X197728Y125541D01*
X197728Y125559D02*
X198144Y125559D01*
X198144Y125577D02*
X197728Y125577D01*
X197728Y125595D02*
X198144Y125595D01*
X198144Y125613D02*
X197728Y125613D01*
X197728Y125631D02*
X198144Y125631D01*
X198144Y125649D02*
X197728Y125649D01*
X197728Y125667D02*
X198144Y125667D01*
X198144Y125873D02*
X197728Y125873D01*
X198144Y125873D02*
X198144Y125701D01*
X197728Y125701D01*
X197728Y125873D01*
X197728Y125719D02*
X198144Y125719D01*
X198144Y125737D02*
X197728Y125737D01*
X197728Y125755D02*
X198144Y125755D01*
X198144Y125773D02*
X197728Y125773D01*
X197728Y125791D02*
X198144Y125791D01*
X198144Y125809D02*
X197728Y125809D01*
X197728Y125827D02*
X198144Y125827D01*
X198144Y125845D02*
X197728Y125845D01*
X197728Y125863D02*
X198144Y125863D01*
X198144Y126070D02*
X197728Y126070D01*
X198144Y126070D02*
X198144Y125898D01*
X197728Y125898D01*
X197728Y126070D01*
X197728Y125916D02*
X198144Y125916D01*
X198144Y125934D02*
X197728Y125934D01*
X197728Y125952D02*
X198144Y125952D01*
X198144Y125970D02*
X197728Y125970D01*
X197728Y125988D02*
X198144Y125988D01*
X198144Y126006D02*
X197728Y126006D01*
X197728Y126024D02*
X198144Y126024D01*
X198144Y126042D02*
X197728Y126042D01*
X197728Y126060D02*
X198144Y126060D01*
X198144Y126267D02*
X197728Y126267D01*
X198144Y126267D02*
X198144Y126095D01*
X197728Y126095D01*
X197728Y126267D01*
X197728Y126113D02*
X198144Y126113D01*
X198144Y126131D02*
X197728Y126131D01*
X197728Y126149D02*
X198144Y126149D01*
X198144Y126167D02*
X197728Y126167D01*
X197728Y126185D02*
X198144Y126185D01*
X198144Y126203D02*
X197728Y126203D01*
X197728Y126221D02*
X198144Y126221D01*
X198144Y126239D02*
X197728Y126239D01*
X197728Y126257D02*
X198144Y126257D01*
X198144Y126464D02*
X197728Y126464D01*
X198144Y126464D02*
X198144Y126292D01*
X197728Y126292D01*
X197728Y126464D01*
X197728Y126310D02*
X198144Y126310D01*
X198144Y126328D02*
X197728Y126328D01*
X197728Y126346D02*
X198144Y126346D01*
X198144Y126364D02*
X197728Y126364D01*
X197728Y126382D02*
X198144Y126382D01*
X198144Y126400D02*
X197728Y126400D01*
X197728Y126418D02*
X198144Y126418D01*
X198144Y126436D02*
X197728Y126436D01*
X197728Y126454D02*
X198144Y126454D01*
X197555Y126465D02*
X197555Y126881D01*
X197727Y126881D01*
X197727Y126465D01*
X197555Y126465D01*
X197555Y126483D02*
X197727Y126483D01*
X197727Y126501D02*
X197555Y126501D01*
X197555Y126519D02*
X197727Y126519D01*
X197727Y126537D02*
X197555Y126537D01*
X197555Y126555D02*
X197727Y126555D01*
X197727Y126573D02*
X197555Y126573D01*
X197555Y126591D02*
X197727Y126591D01*
X197727Y126609D02*
X197555Y126609D01*
X197555Y126627D02*
X197727Y126627D01*
X197727Y126645D02*
X197555Y126645D01*
X197555Y126663D02*
X197727Y126663D01*
X197727Y126681D02*
X197555Y126681D01*
X197555Y126699D02*
X197727Y126699D01*
X197727Y126717D02*
X197555Y126717D01*
X197555Y126735D02*
X197727Y126735D01*
X197727Y126753D02*
X197555Y126753D01*
X197555Y126771D02*
X197727Y126771D01*
X197727Y126789D02*
X197555Y126789D01*
X197555Y126807D02*
X197727Y126807D01*
X197727Y126825D02*
X197555Y126825D01*
X197555Y126843D02*
X197727Y126843D01*
X197727Y126861D02*
X197555Y126861D01*
X197555Y126879D02*
X197727Y126879D01*
X197358Y126881D02*
X197358Y126465D01*
X197358Y126881D02*
X197530Y126881D01*
X197530Y126465D01*
X197358Y126465D01*
X197358Y126483D02*
X197530Y126483D01*
X197530Y126501D02*
X197358Y126501D01*
X197358Y126519D02*
X197530Y126519D01*
X197530Y126537D02*
X197358Y126537D01*
X197358Y126555D02*
X197530Y126555D01*
X197530Y126573D02*
X197358Y126573D01*
X197358Y126591D02*
X197530Y126591D01*
X197530Y126609D02*
X197358Y126609D01*
X197358Y126627D02*
X197530Y126627D01*
X197530Y126645D02*
X197358Y126645D01*
X197358Y126663D02*
X197530Y126663D01*
X197530Y126681D02*
X197358Y126681D01*
X197358Y126699D02*
X197530Y126699D01*
X197530Y126717D02*
X197358Y126717D01*
X197358Y126735D02*
X197530Y126735D01*
X197530Y126753D02*
X197358Y126753D01*
X197358Y126771D02*
X197530Y126771D01*
X197530Y126789D02*
X197358Y126789D01*
X197358Y126807D02*
X197530Y126807D01*
X197530Y126825D02*
X197358Y126825D01*
X197358Y126843D02*
X197530Y126843D01*
X197530Y126861D02*
X197358Y126861D01*
X197358Y126879D02*
X197530Y126879D01*
X197161Y126881D02*
X197161Y126465D01*
X197161Y126881D02*
X197333Y126881D01*
X197333Y126465D01*
X197161Y126465D01*
X197161Y126483D02*
X197333Y126483D01*
X197333Y126501D02*
X197161Y126501D01*
X197161Y126519D02*
X197333Y126519D01*
X197333Y126537D02*
X197161Y126537D01*
X197161Y126555D02*
X197333Y126555D01*
X197333Y126573D02*
X197161Y126573D01*
X197161Y126591D02*
X197333Y126591D01*
X197333Y126609D02*
X197161Y126609D01*
X197161Y126627D02*
X197333Y126627D01*
X197333Y126645D02*
X197161Y126645D01*
X197161Y126663D02*
X197333Y126663D01*
X197333Y126681D02*
X197161Y126681D01*
X197161Y126699D02*
X197333Y126699D01*
X197333Y126717D02*
X197161Y126717D01*
X197161Y126735D02*
X197333Y126735D01*
X197333Y126753D02*
X197161Y126753D01*
X197161Y126771D02*
X197333Y126771D01*
X197333Y126789D02*
X197161Y126789D01*
X197161Y126807D02*
X197333Y126807D01*
X197333Y126825D02*
X197161Y126825D01*
X197161Y126843D02*
X197333Y126843D01*
X197333Y126861D02*
X197161Y126861D01*
X197161Y126879D02*
X197333Y126879D01*
X196964Y126881D02*
X196964Y126465D01*
X196964Y126881D02*
X197136Y126881D01*
X197136Y126465D01*
X196964Y126465D01*
X196964Y126483D02*
X197136Y126483D01*
X197136Y126501D02*
X196964Y126501D01*
X196964Y126519D02*
X197136Y126519D01*
X197136Y126537D02*
X196964Y126537D01*
X196964Y126555D02*
X197136Y126555D01*
X197136Y126573D02*
X196964Y126573D01*
X196964Y126591D02*
X197136Y126591D01*
X197136Y126609D02*
X196964Y126609D01*
X196964Y126627D02*
X197136Y126627D01*
X197136Y126645D02*
X196964Y126645D01*
X196964Y126663D02*
X197136Y126663D01*
X197136Y126681D02*
X196964Y126681D01*
X196964Y126699D02*
X197136Y126699D01*
X197136Y126717D02*
X196964Y126717D01*
X196964Y126735D02*
X197136Y126735D01*
X197136Y126753D02*
X196964Y126753D01*
X196964Y126771D02*
X197136Y126771D01*
X197136Y126789D02*
X196964Y126789D01*
X196964Y126807D02*
X197136Y126807D01*
X197136Y126825D02*
X196964Y126825D01*
X196964Y126843D02*
X197136Y126843D01*
X197136Y126861D02*
X196964Y126861D01*
X196964Y126879D02*
X197136Y126879D01*
D33*
X194460Y128955D03*
X193869Y128955D03*
D34*
X191538Y123614D03*
X188192Y123614D03*
D35*
X203336Y124287D03*
X203336Y124736D03*
X203336Y125185D03*
X203336Y125634D03*
X205336Y125634D03*
X205336Y125185D03*
X205336Y124736D03*
X205336Y124287D03*
D36*
X191359Y131620D03*
X191359Y133352D03*
D37*
X207042Y131646D03*
X209405Y131646D03*
D38*
X208223Y133496D03*
D39*
X211176Y131646D03*
D40*
X204999Y128996D03*
X204208Y128614D03*
X203609Y128240D03*
X203129Y128563D03*
X203129Y127854D03*
X204208Y129402D03*
X204015Y129839D03*
X205090Y127630D03*
X200861Y125331D03*
X200861Y124780D03*
X201483Y124276D03*
X202735Y124272D03*
X204621Y122941D03*
X205625Y120606D03*
X207023Y123811D03*
X209282Y120878D03*
X200861Y122705D03*
X200548Y120531D03*
X199082Y120551D03*
X198499Y124031D03*
X198389Y124803D03*
X198889Y124839D03*
X198869Y125394D03*
X199050Y126287D03*
X198566Y126575D03*
X198121Y126846D03*
X198495Y127118D03*
X198184Y127433D03*
X198499Y127748D03*
X199015Y128157D03*
X197948Y128201D03*
X197479Y128209D03*
X196968Y128217D03*
X196282Y127850D03*
X195444Y127913D03*
X195428Y127346D03*
X194842Y126870D03*
X196534Y126071D03*
X197192Y126071D03*
X197188Y125264D03*
X196507Y125268D03*
X196857Y123693D03*
X195149Y123894D03*
X192511Y124437D03*
X192255Y120846D03*
X194125Y120512D03*
X187160Y120882D03*
X186015Y122201D03*
X185227Y122717D03*
X185944Y123307D03*
X185928Y123858D03*
X185901Y124425D03*
X185881Y124917D03*
X187708Y126508D03*
X185034Y121720D03*
X185373Y120984D03*
X182223Y119035D03*
X181664Y117004D03*
X185865Y115142D03*
X192534Y114969D03*
X199133Y114976D03*
X199137Y113374D03*
X181164Y122177D03*
X181034Y123496D03*
X181066Y124484D03*
X193731Y129839D03*
X194538Y129811D03*
X197696Y131047D03*
D41*
X205861Y114941D03*
D42*
X211097Y117394D03*
X211097Y128339D03*
X203826Y133220D03*
X189641Y127512D03*
X180979Y133220D03*
X180979Y113850D03*
M02*
