G75*
G70*
%OFA0B0*%
%FSLAX24Y24*%
%IPPOS*%
%LPD*%
%AMOC8*
5,1,8,0,0,1.08239X$1,22.5*
%
%ADD10C,0.0000*%
%ADD11C,0.0060*%
%ADD12R,0.0315X0.0354*%
%ADD13R,0.0472X0.0354*%
D10*
X179601Y113654D02*
X179601Y133417D01*
X179603Y133483D01*
X179608Y133549D01*
X179618Y133615D01*
X179631Y133680D01*
X179647Y133744D01*
X179667Y133807D01*
X179691Y133869D01*
X179718Y133929D01*
X179748Y133988D01*
X179782Y134045D01*
X179819Y134100D01*
X179859Y134153D01*
X179901Y134204D01*
X179947Y134252D01*
X179995Y134298D01*
X180046Y134340D01*
X180099Y134380D01*
X180154Y134417D01*
X180211Y134451D01*
X180270Y134481D01*
X180330Y134508D01*
X180392Y134532D01*
X180455Y134552D01*
X180519Y134568D01*
X180584Y134581D01*
X180650Y134591D01*
X180716Y134596D01*
X180782Y134598D01*
X180779Y134598D02*
X211885Y134598D01*
X211951Y134596D01*
X212017Y134591D01*
X212083Y134581D01*
X212148Y134568D01*
X212212Y134552D01*
X212275Y134532D01*
X212337Y134508D01*
X212397Y134481D01*
X212456Y134451D01*
X212513Y134417D01*
X212568Y134380D01*
X212621Y134340D01*
X212672Y134298D01*
X212720Y134252D01*
X212766Y134204D01*
X212808Y134153D01*
X212848Y134100D01*
X212885Y134045D01*
X212919Y133988D01*
X212949Y133929D01*
X212976Y133869D01*
X213000Y133807D01*
X213020Y133744D01*
X213036Y133680D01*
X213049Y133615D01*
X213059Y133549D01*
X213064Y133483D01*
X213066Y133417D01*
X213066Y113654D01*
X213064Y113588D01*
X213059Y113522D01*
X213049Y113456D01*
X213036Y113391D01*
X213020Y113327D01*
X213000Y113264D01*
X212976Y113202D01*
X212949Y113142D01*
X212919Y113083D01*
X212885Y113026D01*
X212848Y112971D01*
X212808Y112918D01*
X212766Y112867D01*
X212720Y112819D01*
X212672Y112773D01*
X212621Y112731D01*
X212568Y112691D01*
X212513Y112654D01*
X212456Y112620D01*
X212397Y112590D01*
X212337Y112563D01*
X212275Y112539D01*
X212212Y112519D01*
X212148Y112503D01*
X212083Y112490D01*
X212017Y112480D01*
X211951Y112475D01*
X211885Y112473D01*
X211885Y112472D02*
X180782Y112472D01*
X180782Y112473D02*
X180716Y112475D01*
X180650Y112480D01*
X180584Y112490D01*
X180519Y112503D01*
X180455Y112519D01*
X180392Y112539D01*
X180330Y112563D01*
X180270Y112590D01*
X180211Y112620D01*
X180154Y112654D01*
X180099Y112691D01*
X180046Y112731D01*
X179995Y112773D01*
X179947Y112819D01*
X179901Y112867D01*
X179859Y112918D01*
X179819Y112971D01*
X179782Y113026D01*
X179748Y113083D01*
X179718Y113142D01*
X179691Y113202D01*
X179667Y113264D01*
X179647Y113327D01*
X179631Y113391D01*
X179618Y113456D01*
X179608Y113522D01*
X179603Y113588D01*
X179601Y113654D01*
X210170Y123094D02*
X210172Y123121D01*
X210178Y123147D01*
X210187Y123172D01*
X210200Y123195D01*
X210216Y123216D01*
X210235Y123235D01*
X210256Y123251D01*
X210279Y123264D01*
X210304Y123273D01*
X210330Y123279D01*
X210357Y123281D01*
X210384Y123279D01*
X210410Y123273D01*
X210435Y123264D01*
X210458Y123251D01*
X210479Y123235D01*
X210498Y123216D01*
X210514Y123195D01*
X210527Y123172D01*
X210536Y123147D01*
X210542Y123121D01*
X210544Y123094D01*
X210542Y123067D01*
X210536Y123041D01*
X210527Y123016D01*
X210514Y122993D01*
X210498Y122972D01*
X210479Y122953D01*
X210458Y122937D01*
X210435Y122924D01*
X210410Y122915D01*
X210384Y122909D01*
X210357Y122907D01*
X210330Y122909D01*
X210304Y122915D01*
X210279Y122924D01*
X210256Y122937D01*
X210235Y122953D01*
X210216Y122972D01*
X210200Y122993D01*
X210187Y123016D01*
X210178Y123041D01*
X210172Y123067D01*
X210170Y123094D01*
X210170Y124850D02*
X210172Y124877D01*
X210178Y124903D01*
X210187Y124928D01*
X210200Y124951D01*
X210216Y124972D01*
X210235Y124991D01*
X210256Y125007D01*
X210279Y125020D01*
X210304Y125029D01*
X210330Y125035D01*
X210357Y125037D01*
X210384Y125035D01*
X210410Y125029D01*
X210435Y125020D01*
X210458Y125007D01*
X210479Y124991D01*
X210498Y124972D01*
X210514Y124951D01*
X210527Y124928D01*
X210536Y124903D01*
X210542Y124877D01*
X210544Y124850D01*
X210542Y124823D01*
X210536Y124797D01*
X210527Y124772D01*
X210514Y124749D01*
X210498Y124728D01*
X210479Y124709D01*
X210458Y124693D01*
X210435Y124680D01*
X210410Y124671D01*
X210384Y124665D01*
X210357Y124663D01*
X210330Y124665D01*
X210304Y124671D01*
X210279Y124680D01*
X210256Y124693D01*
X210235Y124709D01*
X210216Y124728D01*
X210200Y124749D01*
X210187Y124772D01*
X210178Y124797D01*
X210172Y124823D01*
X210170Y124850D01*
X210743Y131646D02*
X210745Y131687D01*
X210751Y131728D01*
X210761Y131768D01*
X210774Y131807D01*
X210791Y131844D01*
X210812Y131880D01*
X210836Y131914D01*
X210863Y131945D01*
X210892Y131973D01*
X210925Y131999D01*
X210959Y132021D01*
X210996Y132040D01*
X211034Y132055D01*
X211074Y132067D01*
X211114Y132075D01*
X211155Y132079D01*
X211197Y132079D01*
X211238Y132075D01*
X211278Y132067D01*
X211318Y132055D01*
X211356Y132040D01*
X211392Y132021D01*
X211427Y131999D01*
X211460Y131973D01*
X211489Y131945D01*
X211516Y131914D01*
X211540Y131880D01*
X211561Y131844D01*
X211578Y131807D01*
X211591Y131768D01*
X211601Y131728D01*
X211607Y131687D01*
X211609Y131646D01*
X211607Y131605D01*
X211601Y131564D01*
X211591Y131524D01*
X211578Y131485D01*
X211561Y131448D01*
X211540Y131412D01*
X211516Y131378D01*
X211489Y131347D01*
X211460Y131319D01*
X211427Y131293D01*
X211393Y131271D01*
X211356Y131252D01*
X211318Y131237D01*
X211278Y131225D01*
X211238Y131217D01*
X211197Y131213D01*
X211155Y131213D01*
X211114Y131217D01*
X211074Y131225D01*
X211034Y131237D01*
X210996Y131252D01*
X210960Y131271D01*
X210925Y131293D01*
X210892Y131319D01*
X210863Y131347D01*
X210836Y131378D01*
X210812Y131412D01*
X210791Y131448D01*
X210774Y131485D01*
X210761Y131524D01*
X210751Y131564D01*
X210745Y131605D01*
X210743Y131646D01*
D11*
X180200Y108408D02*
X179879Y108408D01*
X179879Y109048D01*
X180200Y109048D01*
X180306Y108942D01*
X180306Y108835D01*
X180200Y108728D01*
X179879Y108728D01*
X180200Y108728D02*
X180306Y108621D01*
X180306Y108515D01*
X180200Y108408D01*
X180524Y108515D02*
X180631Y108408D01*
X180844Y108408D01*
X180951Y108515D01*
X180951Y108942D01*
X180844Y109048D01*
X180631Y109048D01*
X180524Y108942D01*
X180524Y108515D01*
X181169Y109048D02*
X181596Y109048D01*
X181382Y109048D02*
X181382Y108408D01*
X182458Y108408D02*
X182458Y109048D01*
X182778Y109048D01*
X182885Y108942D01*
X182885Y108728D01*
X182778Y108621D01*
X182458Y108621D01*
X183102Y108728D02*
X183529Y108728D01*
X183529Y108835D02*
X183529Y108408D01*
X183747Y108515D02*
X183853Y108408D01*
X184067Y108408D01*
X184174Y108515D01*
X184174Y108621D01*
X184067Y108728D01*
X183853Y108728D01*
X183747Y108835D01*
X183747Y108942D01*
X183853Y109048D01*
X184067Y109048D01*
X184174Y108942D01*
X184391Y109048D02*
X184818Y109048D01*
X184605Y109048D02*
X184605Y108408D01*
X185036Y108408D02*
X185463Y108408D01*
X185249Y108728D02*
X185036Y108728D01*
X185036Y109048D02*
X185036Y108408D01*
X185036Y109048D02*
X185463Y109048D01*
X185496Y109853D02*
X185496Y110493D01*
X185176Y110173D01*
X185603Y110173D01*
X185820Y110066D02*
X186141Y110066D01*
X186247Y110173D01*
X186247Y110387D01*
X186141Y110493D01*
X185820Y110493D01*
X185820Y109853D01*
X186465Y109853D02*
X186892Y110280D01*
X187110Y110493D02*
X187110Y109960D01*
X187216Y109853D01*
X187430Y109853D01*
X187537Y109960D01*
X187537Y110493D01*
X187754Y109746D02*
X188181Y109746D01*
X188399Y109853D02*
X188399Y110493D01*
X188719Y110493D01*
X188826Y110387D01*
X188826Y110173D01*
X188719Y110066D01*
X188399Y110066D01*
X188612Y110066D02*
X188826Y109853D01*
X189043Y109853D02*
X189043Y110493D01*
X189363Y110493D01*
X189470Y110387D01*
X189470Y110173D01*
X189363Y110066D01*
X189043Y110066D01*
X189688Y109853D02*
X189901Y109853D01*
X189794Y109853D02*
X189794Y110280D01*
X189688Y110280D01*
X189794Y110493D02*
X189794Y110600D01*
X190762Y110493D02*
X191082Y110493D01*
X191189Y110387D01*
X191189Y110173D01*
X191082Y110066D01*
X190762Y110066D01*
X190762Y109853D02*
X190762Y110493D01*
X190975Y110066D02*
X191189Y109853D01*
X191407Y109960D02*
X191407Y110173D01*
X191513Y110280D01*
X191727Y110280D01*
X191834Y110173D01*
X191834Y110066D01*
X191407Y110066D01*
X191407Y109960D02*
X191513Y109853D01*
X191727Y109853D01*
X192051Y110280D02*
X192265Y109853D01*
X192478Y110280D01*
X193340Y110173D02*
X193660Y110173D01*
X193767Y110066D01*
X193767Y109960D01*
X193660Y109853D01*
X193340Y109853D01*
X193340Y110493D01*
X193660Y110493D01*
X193767Y110387D01*
X193767Y110280D01*
X193660Y110173D01*
X194629Y110280D02*
X194843Y110493D01*
X194843Y109853D01*
X195056Y109853D02*
X194629Y109853D01*
X195274Y109960D02*
X195274Y110066D01*
X195381Y110173D01*
X195594Y110173D01*
X195701Y110066D01*
X195701Y109960D01*
X195594Y109853D01*
X195381Y109853D01*
X195274Y109960D01*
X195381Y110173D02*
X195274Y110280D01*
X195274Y110387D01*
X195381Y110493D01*
X195594Y110493D01*
X195701Y110387D01*
X195701Y110280D01*
X195594Y110173D01*
X195918Y109960D02*
X196025Y109853D01*
X196132Y109853D01*
X196239Y109960D01*
X196239Y110493D01*
X196345Y110493D02*
X196132Y110493D01*
X196563Y110280D02*
X196563Y109960D01*
X196670Y109853D01*
X196990Y109853D01*
X196990Y110280D01*
X197207Y110493D02*
X197314Y110493D01*
X197314Y109853D01*
X197207Y109853D02*
X197421Y109853D01*
X197637Y109960D02*
X197744Y109853D01*
X198064Y109853D01*
X198064Y109746D02*
X197957Y109639D01*
X197851Y109639D01*
X198064Y109746D02*
X198064Y110280D01*
X198282Y110387D02*
X198388Y110493D01*
X198602Y110493D01*
X198709Y110387D01*
X198709Y110280D01*
X198282Y109853D01*
X198709Y109853D01*
X198926Y109960D02*
X199353Y110387D01*
X199353Y109960D01*
X199247Y109853D01*
X199033Y109853D01*
X198926Y109960D01*
X198926Y110387D01*
X199033Y110493D01*
X199247Y110493D01*
X199353Y110387D01*
X199571Y110280D02*
X199784Y110493D01*
X199784Y109853D01*
X199571Y109853D02*
X199998Y109853D01*
X200215Y110173D02*
X200536Y110493D01*
X200536Y109853D01*
X200642Y110173D02*
X200215Y110173D01*
X197637Y110280D02*
X197637Y109960D01*
X186892Y109853D02*
X186465Y110280D01*
X184958Y109746D02*
X184531Y109746D01*
X184314Y109746D02*
X184314Y110280D01*
X183994Y110280D01*
X183887Y110173D01*
X183887Y109960D01*
X183994Y109853D01*
X184314Y109853D01*
X184314Y109746D02*
X184207Y109639D01*
X184100Y109639D01*
X183670Y110280D02*
X183563Y110280D01*
X183350Y110066D01*
X183350Y109853D02*
X183350Y110280D01*
X183132Y110173D02*
X183025Y110280D01*
X182812Y110280D01*
X182705Y110173D01*
X182705Y109960D01*
X182812Y109853D01*
X183025Y109853D01*
X183132Y109960D01*
X183132Y110173D01*
X182490Y109960D02*
X182490Y109853D01*
X182383Y109853D01*
X182383Y109960D01*
X182490Y109960D01*
X182165Y109853D02*
X182165Y110280D01*
X181952Y110493D01*
X181738Y110280D01*
X181738Y109853D01*
X181521Y109853D02*
X181094Y109853D01*
X181094Y110493D01*
X180876Y110387D02*
X180449Y109960D01*
X180556Y109853D01*
X180769Y109853D01*
X180876Y109960D01*
X180876Y110387D01*
X180769Y110493D01*
X180556Y110493D01*
X180449Y110387D01*
X180449Y109960D01*
X180232Y109853D02*
X179805Y109853D01*
X180018Y109853D02*
X180018Y110493D01*
X179805Y110280D01*
X181738Y110173D02*
X182165Y110173D01*
X183316Y109048D02*
X183529Y108835D01*
X183316Y109048D02*
X183102Y108835D01*
X183102Y108408D01*
D12*
G36*
X186298Y115357D02*
X186076Y115579D01*
X186326Y115829D01*
X186548Y115607D01*
X186298Y115357D01*
G37*
G36*
X185741Y115914D02*
X185519Y116136D01*
X185769Y116386D01*
X185991Y116164D01*
X185741Y115914D01*
G37*
G36*
X186855Y115914D02*
X186633Y116136D01*
X186883Y116386D01*
X187105Y116164D01*
X186855Y115914D01*
G37*
G36*
X192436Y115764D02*
X192214Y115986D01*
X192464Y116236D01*
X192686Y116014D01*
X192436Y115764D01*
G37*
G36*
X192993Y115207D02*
X192771Y115429D01*
X193021Y115679D01*
X193243Y115457D01*
X192993Y115207D01*
G37*
G36*
X193550Y115764D02*
X193328Y115986D01*
X193578Y116236D01*
X193800Y116014D01*
X193550Y115764D01*
G37*
G36*
X199129Y115841D02*
X198907Y116063D01*
X199157Y116313D01*
X199379Y116091D01*
X199129Y115841D01*
G37*
G36*
X199686Y115284D02*
X199464Y115506D01*
X199714Y115756D01*
X199936Y115534D01*
X199686Y115284D01*
G37*
G36*
X200243Y115841D02*
X200021Y116063D01*
X200271Y116313D01*
X200493Y116091D01*
X200243Y115841D01*
G37*
G36*
X205822Y115772D02*
X205600Y115994D01*
X205850Y116244D01*
X206072Y116022D01*
X205822Y115772D01*
G37*
G36*
X206379Y115215D02*
X206157Y115437D01*
X206407Y115687D01*
X206629Y115465D01*
X206379Y115215D01*
G37*
G36*
X206935Y115772D02*
X206713Y115994D01*
X206963Y116244D01*
X207185Y116022D01*
X206935Y115772D01*
G37*
D13*
G36*
X206489Y116217D02*
X206156Y116550D01*
X206407Y116801D01*
X206740Y116468D01*
X206489Y116217D01*
G37*
G36*
X199796Y116286D02*
X199463Y116619D01*
X199714Y116870D01*
X200047Y116537D01*
X199796Y116286D01*
G37*
G36*
X193104Y116209D02*
X192771Y116542D01*
X193022Y116793D01*
X193355Y116460D01*
X193104Y116209D01*
G37*
G36*
X186409Y116359D02*
X186076Y116692D01*
X186327Y116943D01*
X186660Y116610D01*
X186409Y116359D01*
G37*
M02*
