%
M48
M72
T01C0.0157
T02C0.0236
T03C0.0374
T04C0.0394
T05C0.0866
T06C0.0937
T07C0.1142
T08C0.1181
T09C0.1378
%
T01
X199137Y113374
X199133Y114976
X192534Y114969
X185865Y115142
X181664Y117004
X182223Y119035
X181164Y122177
X181034Y123496
X181066Y124484
X185227Y122717
X185944Y123307
X185928Y123858
X185901Y124425
X185881Y124917
X187708Y126508
X186015Y122201
X185034Y121720
X185373Y120984
X187160Y120882
X192255Y120846
X194125Y120512
X195149Y123894
X196857Y123693
X197188Y125264
X196507Y125268
X196534Y126071
X197192Y126071
X198121Y126846
X198495Y127118
X198184Y127433
X198499Y127748
X199015Y128157
X197948Y128201
X197479Y128209
X196968Y128217
X196282Y127850
X195444Y127913
X195428Y127346
X194842Y126870
X194538Y129811
X193731Y129839
X197696Y131047
X203129Y128563
X203609Y128240
X203129Y127854
X204208Y128614
X204208Y129402
X204015Y129839
X204999Y128996
X205090Y127630
X200861Y125331
X200861Y124780
X201483Y124276
X202735Y124272
X204621Y122941
X205625Y120606
X207023Y123811
X209282Y120878
X200861Y122705
X200548Y120531
X199082Y120551
X198499Y124031
X198389Y124803
X198889Y124839
X198869Y125394
X199050Y126287
X198566Y126575
X192511Y124437
T02
X205861Y114941
T03
X210357Y123094
X210357Y124850
T04
X207863Y117949
X206879Y117949
X206092Y117949
X205107Y117949
X201139Y117949
X200155Y117949
X199367Y117949
X198383Y117949
X194416Y117949
X193432Y117949
X192645Y117949
X191660Y117949
X187692Y117949
X186708Y117949
X185920Y117949
X184936Y117949
X184883Y127691
X184883Y128675
X184883Y129463
X184883Y130447
T05
X211176Y131646
T06
X202347Y116882
X203899Y116882
X209072Y116882
X197174Y116882
X195625Y116882
X190452Y116882
X188901Y116882
X183727Y116882
X183816Y126482
X183816Y131656
T07
X211097Y117394
X211097Y128339
X203826Y133220
X189641Y127512
X180979Y133220
X180979Y113850
T08
X208223Y133496
T09
X209405Y131646
X207042Y131646
M30
